<svg id="Layer_1" data-name="Layer 1" xmlns="http://www.w3.org/2000/svg" viewBox="0 0 456.28 456.28"><title>Artboard 1</title><path d="M228.13,111A117.15,117.15,0,1,0,345.29,228.14,117.15,117.15,0,0,0,228.13,111Zm0,193.2a76,76,0,1,1,76.05-76A76,76,0,0,1,228.13,304.19Z" fill="#c62438"/><circle cx="349.92" cy="106.36" r="27.38" fill="#c62438"/><path d="M228.13,111A117.15,117.15,0,1,0,345.29,228.14,117.15,117.15,0,0,0,228.13,111Zm0,193.2a76,76,0,1,1,76.05-76A76,76,0,0,1,228.13,304.19Z" fill="#c62438"/><circle cx="349.92" cy="106.36" r="27.38" fill="#c62438"/><path d="M454.9,134.08c-1.11-24.29-5-40.87-10.6-55.38A111.75,111.75,0,0,0,418,38.29,111.77,111.77,0,0,0,377.57,12c-14.51-5.64-31.09-9.5-55.37-10.61C299.05.31,290.89,0,236.83,0H219.44c-54.06,0-62.22.31-85.37,1.37C109.79,2.48,93.21,6.34,78.69,12a111.82,111.82,0,0,0-40.4,26.31A111.75,111.75,0,0,0,12,78.7c-5.64,14.51-9.49,31.09-10.6,55.38S0,166.18,0,228.14s.26,69.73,1.37,94.06,5,40.87,10.6,55.38A111.83,111.83,0,0,0,38.29,418a111.82,111.82,0,0,0,40.4,26.31c14.52,5.64,31.1,9.5,55.38,10.61s32.1,1.37,94.06,1.37,69.73-.26,94.07-1.37,40.86-5,55.37-10.61a116.66,116.66,0,0,0,66.73-66.72c5.64-14.51,9.49-31.1,10.6-55.38,1.07-23.45,1.35-31.53,1.37-87.56v-13C456.25,165.6,456,157.53,454.9,134.08ZM413.84,320.33c-1,22.24-4.73,34.32-7.86,42.36a75.53,75.53,0,0,1-43.3,43.3c-8,3.12-20.12,6.84-42.36,7.85-24,1.1-31.26,1.33-92.19,1.33S160,414.94,136,413.84c-22.25-1-34.33-4.73-42.37-7.85a70.71,70.71,0,0,1-26.23-17.07,70.69,70.69,0,0,1-17.06-26.23c-3.13-8-6.84-20.12-7.86-42.36-1.1-24.06-1.33-31.27-1.33-92.19s.23-68.13,1.33-92.19c1-22.24,4.73-34.32,7.86-42.36A70.69,70.69,0,0,1,67.35,67.36,70.59,70.59,0,0,1,93.58,50.29c8-3.12,20.12-6.84,42.37-7.86,24.05-1.09,31.27-1.33,92.18-1.33s68.13.24,92.19,1.33c22.24,1,34.33,4.74,42.36,7.86a70.7,70.7,0,0,1,26.24,17.07A70.69,70.69,0,0,1,406,93.59c3.13,8,6.84,20.12,7.86,42.36,1.09,24.06,1.33,31.27,1.33,92.19S414.93,296.27,413.84,320.33Z" fill="#c62438"/><path d="M228.13,111A117.15,117.15,0,1,0,345.29,228.14,117.15,117.15,0,0,0,228.13,111Zm0,193.2a76,76,0,1,1,76.05-76A76,76,0,0,1,228.13,304.19Z" fill="#c62438"/><circle cx="349.92" cy="106.36" r="27.38" fill="#c62438"/></svg>