<svg version="1.1" id="icon-close" xmlns="http://www.w3.org/2000/svg" xmlns:xlink="http://www.w3.org/1999/xlink" x="0px" y="0px"
	 viewBox="0 90.001 612.001 611.994" enable-background="new 0 90.001 612.001 611.994"
	 xml:space="preserve">
<path fill="#FFFFFF" d="M600.312,633.794c15.586,15.583,15.586,40.937,0,56.52c-7.788,7.791-18.024,11.682-28.257,11.682
	c-10.235,0-20.471-3.894-28.259-11.682L306.01,452.526L68.226,690.313c-7.792,7.791-18.024,11.682-28.259,11.682
	c-10.236,0-20.471-3.894-28.26-11.682c-15.583-15.583-15.583-40.937,0-56.52L249.49,396.011L11.707,158.225
	C4.157,150.678,0,140.644,0,129.965c0-10.679,4.157-20.713,11.707-28.256c7.547-7.55,17.584-11.708,28.26-11.708
	c10.675,0,20.709,4.158,28.259,11.704L306.01,339.492l237.786-237.786c15.579-15.577,40.936-15.583,56.516,0
	c15.586,15.583,15.586,40.937,0,56.519L362.528,396.011L600.312,633.794z"/>
</svg>
