<svg version="1.1" id="icon-menu" xmlns="http://www.w3.org/2000/svg" xmlns:xlink="http://www.w3.org/1999/xlink" x="0px" y="0px"
   viewBox="0 0 208.699 161.802" enable-background="new 0 0 208.699 161.802"
   xml:space="preserve">
<path d="M12.901,25.802c-7.113,0-12.9-5.787-12.9-12.9C0.001,5.787,5.788,0,12.901,0h182.897c7.114,0,12.901,5.787,12.901,12.9
  c0,7.114-5.787,12.901-12.901,12.901H12.901 M195.798,68H12.901C5.787,68,0,73.787,0,80.901c0,7.113,5.787,12.9,12.901,12.9h182.897
  c7.113,0,12.9-5.787,12.9-12.901C208.698,73.787,202.911,68,195.798,68 M195.798,136H12.901C5.787,136,0,141.787,0,148.901
  c0,7.113,5.787,12.9,12.901,12.9h182.897c7.113,0,12.9-5.787,12.9-12.901C208.698,141.787,202.911,136,195.798,136"/>
</svg>
