<svg version="1.1" id="icon-search" xmlns="http://www.w3.org/2000/svg" xmlns:xlink="http://www.w3.org/1999/xlink" x="0px"
	 y="0px" viewBox="0 89.999 612.002 612.002"
	 enable-background="new 0 89.999 612.002 612.002" xml:space="preserve">
<path fill="#FFFFFF" d="M600.834,636.816L461.407,497.408c-0.693-0.524-1.375-1.06-2.033-1.649l-10.02-8.942l7.389-11.214
	c26.801-40.655,40.971-87.941,40.971-136.744c0-137.22-111.637-248.86-248.857-248.86S0,201.635,0,338.858
	c0,137.221,111.637,248.856,248.854,248.856c48.806,0,96.085-14.167,136.75-40.968l11.188-7.38l8.945,9.984
	c0.596,0.667,1.141,1.358,1.673,2.061l0.042,0.057l139.366,139.363c14.891,14.894,39.126,14.891,54.02,0
	C615.725,675.938,615.725,651.707,600.834,636.816 M248.857,527.147c-103.825,0-188.292-84.467-188.292-188.289
	c0-103.825,84.467-188.292,188.292-188.292c103.823,0,188.289,84.467,188.289,188.292
	C437.146,442.681,352.68,527.147,248.857,527.147"/>
</svg>
