<?xml version="1.0" encoding="utf-8"?>
<!-- Generator: Adobe Illustrator 20.1.0, SVG Export Plug-In . SVG Version: 6.00 Build 0)  -->
<svg version="1.1" id="icon-quote" xmlns="http://www.w3.org/2000/svg" xmlns:xlink="http://www.w3.org/1999/xlink" x="0px" y="0px"
	 viewBox="0 0 27.6 24" enable-background="new 0 0 27.6 24" xml:space="preserve">
<path id="icon-quote-path" fill="#FFFFFF" enable-background="new    " d="M10,0C3.3,4.3,0,9.4,0,15.2c-0.1,2.3,0.7,4.5,2.1,6.2
	C3.2,23,5,24,7,24c1.4,0,2.7-0.5,3.7-1.5c1-0.9,1.6-2.2,1.5-3.5c0-3.4-1.7-5.3-5.1-5.8c-2.4-0.3-3.7-0.8-3.8-1.5
	c0.1-0.5,0.3-0.9,0.5-1.3l1.4-3.1C5.9,6.1,7.8,4.3,10.8,2L10,0z M25,0c-2.9,2-5.4,4.5-7.5,7.3c-1.5,2.2-2.3,4.8-2.3,7.4
	c0,2.3,0.7,4.5,2.2,6.3c1.1,1.7,3,2.7,5,2.7c1.4,0.1,2.8-0.5,3.8-1.5c1-1.1,1.5-2.5,1.5-3.9c0-1.1-0.3-2.2-0.8-3.1
	c-0.8-1.4-1.5-2.1-2.3-2.1l-4.8,0.4c-0.8,0.1-1-0.7-0.7-2.3c0.5-2.9,2.8-5.9,7-9L25,0z"/>
</svg>
