<svg version="1.1" id="icon-close" xmlns="http://www.w3.org/2000/svg" xmlns:xlink="http://www.w3.org/1999/xlink" x="0px" y="0px"
	 viewBox="0 0 197.55 197.549" enable-background="new 0 0 197.55 197.549"
   xml:space="preserve">
<path d="M193.777,175.533c5.031,5.03,5.031,13.214,0,18.244c-2.514,2.515-5.818,3.771-9.121,3.771c-3.304,0-6.608-1.257-9.122-3.771
	l-76.756-76.756l-76.755,76.756c-2.515,2.515-5.818,3.771-9.122,3.771s-6.608-1.257-9.122-3.771c-5.03-5.03-5.03-13.214,0-18.244
	l76.755-76.755L3.779,22.022C1.342,19.586,0,16.347,0,12.9s1.342-6.686,3.779-9.121C6.215,1.342,9.455,0,12.901,0
	s6.685,1.342,9.122,3.778l76.755,76.756l76.756-76.756c5.029-5.028,13.214-5.03,18.243,0c5.031,5.03,5.031,13.214,0,18.244
	l-76.755,76.756L193.777,175.533z"/>
</svg>
