<?xml version="1.0" encoding="utf-8"?>
<!-- Generator: Adobe Illustrator 20.1.0, SVG Export Plug-In . SVG Version: 6.00 Build 0)  -->
<svg version="1.1" id="icon-red-circle-arrow" xmlns="http://www.w3.org/2000/svg" xmlns:xlink="http://www.w3.org/1999/xlink"
	 x="0px" y="0px" viewBox="0 0 205 205" enable-background="new 0 0 205 205" xml:space="preserve">
<path id="icon-red-circle-arrow-path" fill="#C62437" d="M102.5,0C46,0,0,46,0,102.5S46,205,102.5,205S205,159,205,102.5
	S159,0,102.5,0z M145.9,106.5l-31.6,31.6c-1.1,1.1-2.4,1.6-4,1.6c-1.5,0-2.9-0.6-4-1.6c-2.2-2.2-2.2-5.7,0-7.9l21.8-21.8h-65
	c-3.2,0-5.8-2.6-5.8-5.8s2.6-5.8,5.8-5.8h65l-21.8-21.8c-2.2-2.2-2.2-5.7,0-7.9c2.2-2.2,5.7-2.2,7.9,0v0l31.6,31.6
	c1.1,1.1,1.6,2.5,1.6,4S147,105.4,145.9,106.5z"/>
</svg>
