<svg xmlns="http://www.w3.org/2000/svg" width="30" height="25" viewBox="0 0 30 25">
  <defs>
    <style>
      .cls-1 {
        fill: #324352;
        fill-rule: evenodd;
        opacity: 0.3;
      }
    </style>
  </defs>
  <path id="_" data-name="“" class="cls-1" d="M11.016,0.008Q0.7,6.588.7,15.358a9.587,9.587,0,0,0,2.134,6.29,6.418,6.418,0,0,0,5.106,2.6A5.493,5.493,0,0,0,11.8,22.773a4.66,4.66,0,0,0,1.594-3.549q0-5.076-5.24-5.827-3.782-.52-3.944-1.5a4.435,4.435,0,0,1,.541-1.328L6.207,7.453Q7.18,5.491,11.881,2.028Zm15.6,0A31.837,31.837,0,0,0,18.86,7.424a13.226,13.226,0,0,0-2.35,7.53,9.889,9.889,0,0,0,2.242,6.406,6.535,6.535,0,0,0,5.16,2.769,5.188,5.188,0,0,0,3.89-1.558,5.483,5.483,0,0,0,1.513-3.982,6.368,6.368,0,0,0-.811-3.173q-1.189-2.194-2.431-2.078l-4.917.4q-1.188.117-.756-2.365,0.756-4.443,7.294-9.118Z"/>
</svg>
