<svg id="Layer_1" data-name="Layer 1" xmlns="http://www.w3.org/2000/svg" viewBox="0 0 456.28 456.28"><title>Artboard 1</title><path d="M406,93.59a70.66,70.66,0,0,0-17.07-26.23,70.69,70.69,0,0,0-26.23-17.07c-8-3.12-20.12-6.84-42.36-7.86-24.06-1.1-31.27-1.33-92.19-1.33S160,41.34,136,42.43c-22.24,1-34.32,4.73-42.36,7.86A70.69,70.69,0,0,0,67.36,67.35,70.7,70.7,0,0,0,50.29,93.59c-3.12,8-6.84,20.12-7.86,42.36-1.1,24.06-1.33,31.27-1.33,92.19s.23,68.13,1.33,92.19c1,22.24,4.73,34.32,7.86,42.36a70.72,70.72,0,0,0,17.07,26.23A70.69,70.69,0,0,0,93.59,406c8,3.12,20.12,6.84,42.36,7.85,24.05,1.1,31.27,1.33,92.19,1.33s68.13-.23,92.19-1.33c22.24-1,34.32-4.73,42.36-7.85a75.55,75.55,0,0,0,43.3-43.3c3.12-8,6.84-20.12,7.86-42.36,1.1-24.06,1.33-31.27,1.33-92.19s-.23-68.13-1.33-92.19C412.83,113.71,409.11,101.63,406,93.59ZM228.14,345.29A117.15,117.15,0,1,1,345.29,228.14,117.15,117.15,0,0,1,228.14,345.29ZM349.92,133.73a27.38,27.38,0,1,1,27.38-27.38A27.38,27.38,0,0,1,349.92,133.73Z" fill="none"/><circle cx="228.14" cy="228.14" r="76.05" fill="none"/><path d="M454.91,134.08c-1.11-24.28-5-40.87-10.6-55.38A111.83,111.83,0,0,0,418,38.29,111.81,111.81,0,0,0,377.58,12c-14.51-5.64-31.09-9.5-55.38-10.6C299.06.31,290.89,0,236.83,0H219.45c-54.06,0-62.22.31-85.37,1.37C109.79,2.48,93.21,6.34,78.7,12A111.81,111.81,0,0,0,38.29,38.29,111.82,111.82,0,0,0,12,78.7c-5.64,14.51-9.5,31.1-10.6,55.38S0,166.18,0,228.14s.26,69.73,1.37,94.06,5,40.87,10.6,55.38A111.82,111.82,0,0,0,38.29,418,111.81,111.81,0,0,0,78.7,444.3c14.51,5.64,31.09,9.5,55.38,10.6s32.1,1.37,94.06,1.37,69.73-.26,94.06-1.37,40.87-5,55.38-10.6a116.65,116.65,0,0,0,66.72-66.72c5.64-14.51,9.5-31.1,10.6-55.38,1.07-23.45,1.35-31.53,1.37-87.56v-13C456.26,165.6,456,157.53,454.91,134.08ZM413.84,320.33c-1,22.24-4.73,34.32-7.86,42.36a75.55,75.55,0,0,1-43.3,43.3c-8,3.12-20.12,6.84-42.36,7.85-24.05,1.1-31.27,1.33-92.19,1.33S160,414.94,136,413.84c-22.24-1-34.32-4.73-42.36-7.85a70.69,70.69,0,0,1-26.23-17.07,70.72,70.72,0,0,1-17.07-26.23c-3.12-8-6.84-20.12-7.86-42.36-1.1-24.06-1.33-31.27-1.33-92.19s.23-68.13,1.33-92.19c1-22.24,4.73-34.32,7.86-42.36A70.7,70.7,0,0,1,67.36,67.35,70.69,70.69,0,0,1,93.59,50.29c8-3.12,20.12-6.84,42.36-7.86,24.06-1.1,31.27-1.33,92.19-1.33s68.13.23,92.19,1.33c22.24,1,34.32,4.73,42.36,7.86a70.69,70.69,0,0,1,26.23,17.07A70.66,70.66,0,0,1,406,93.59c3.12,8,6.84,20.12,7.86,42.36,1.1,24.06,1.33,31.27,1.33,92.19S414.94,296.27,413.84,320.33Z" fill="#010101"/><path d="M228.14,111A117.15,117.15,0,1,0,345.29,228.14,117.15,117.15,0,0,0,228.14,111Zm0,193.2a76,76,0,1,1,76-76A76,76,0,0,1,228.14,304.18Z" fill="#010101"/><circle cx="349.92" cy="106.36" r="27.38" fill="#010101"/></svg>