<svg id="Layer_1" data-name="Layer 1" xmlns="http://www.w3.org/2000/svg" viewBox="0 0 169.69 153.72"><title>Artboard 1</title><path d="M160.94,10H117.12V3.57A3.57,3.57,0,0,0,113.55,0h-4.83a3.58,3.58,0,0,0-3.58,3.58h0V10H64.55V3.58A3.58,3.58,0,0,0,61,0H56.1a3.53,3.53,0,0,0-3.53,3.53V10H8.81A8.81,8.81,0,0,0,0,18.79V144.9a8.82,8.82,0,0,0,8.82,8.82H126.25l43.44-43.44V18.73A8.75,8.75,0,0,0,160.94,10ZM129.76,133.27V113.79h19.48Zm27.95-31.46H126.62a8.84,8.84,0,0,0-8.84,8.84h0v31.09H12V53.9H157.71Zm0-59.89H12V22H52.57v6.45A3.53,3.53,0,0,0,56.1,32h4.75a3.69,3.69,0,0,0,3.69-3.69h0V22h40.59v4.4a3.54,3.54,0,0,0,3.54,3.54h4.92a3.52,3.52,0,0,0,3.52-3.52V22H157.7Z" fill="#fff"/><rect x="38.93" y="105.81" width="19.96" height="19.96" fill="#fff"/><rect x="74.86" y="105.81" width="19.96" height="19.96" fill="#fff"/><rect x="74.86" y="69.87" width="19.96" height="19.96" fill="#fff"/><rect x="110.8" y="69.87" width="19.96" height="19.96" fill="#fff"/><rect x="38.93" y="69.87" width="19.96" height="19.96" fill="#fff"/></svg>