<svg version="1.1" id="icon-search" xmlns="http://www.w3.org/2000/svg" xmlns:xlink="http://www.w3.org/1999/xlink" x="0px" y="0px"
	 viewBox="0 0 205.583 205.584" enable-background="new 0 0 205.583 205.584"
   xml:space="preserve">
<path d="M201.832,183.687l-46.836-46.83c-0.233-0.176-0.462-0.356-0.683-0.554l-3.366-3.004l2.482-3.767
	c9.003-13.657,13.763-29.541,13.763-45.935C167.192,37.502,129.691,0,83.596,0C37.501,0,0,37.501,0,83.597
	c0,46.095,37.501,83.596,83.595,83.596c16.395,0,32.277-4.759,45.937-13.762l3.758-2.479l3.005,3.354
	c0.2,0.224,0.383,0.456,0.562,0.692l0.014,0.019l46.816,46.815c5.002,5.003,13.143,5.002,18.146,0
	C206.834,196.829,206.834,188.689,201.832,183.687 M83.596,146.847c-34.877,0-63.251-28.374-63.251-63.25
	c0-34.877,28.374-63.251,63.251-63.251c34.876,0,63.25,28.374,63.25,63.251C146.846,118.473,118.472,146.847,83.596,146.847"/>
</svg>
