<?xml version="1.0" encoding="utf-8"?>
<!-- Generator: Adobe Illustrator 20.1.0, SVG Export Plug-In . SVG Version: 6.00 Build 0)  -->
<svg version="1.1" id="icon-white-circle-arrow" xmlns="http://www.w3.org/2000/svg" xmlns:xlink="http://www.w3.org/1999/xlink"
	 x="0px" y="0px" viewBox="0 0 206 206" enable-background="new 0 0 206 206" xml:space="preserve">
<path id="icon-white-circle-arrow-path" fill="#FFFFFF" d="M103,1C46.8,1,1,46.8,1,103s45.8,102,102,102s102-45.8,102-102
	S159.2,1,103,1z M194,103c0,50.2-40.8,91-91,91s-91-40.8-91-91s40.8-91,91-91S194,52.8,194,103z M145.3,100.1
	c0.8,0.8,1.2,1.8,1.2,2.9s-0.4,2.1-1.2,2.9l-31.6,31.6c-0.8,0.8-1.8,1.2-2.9,1.2c-1.1,0-2.1-0.4-2.9-1.2c-1.6-1.6-1.6-4.2,0-5.8
	l24.4-24.4H63.7c-2.4,0-4.3-1.9-4.3-4.3s1.9-4.3,4.3-4.3h68.6l-24.4-24.4c-1.6-1.6-1.6-4.2,0-5.8c1.6-1.6,4.2-1.6,5.8,0L145.3,100.1
	z"/>
</svg>
